<?xml version="1.0" encoding="UTF-8"?>
<svg xmlns="http://www.w3.org/2000/svg" xmlns:xlink="http://www.w3.org/1999/xlink" width="167px" height="34px" viewBox="0 0 167 34" version="1.1">
<g id="surface1">
<path style=" stroke:none;fill-rule:nonzero;fill:rgb(0%,47.058824%,83.137255%);fill-opacity:1;" d="M 4 0 L 163 0 C 165.210938 0 167 1.789062 167 4 L 167 30 C 167 32.210938 165.210938 34 163 34 L 4 34 C 1.789062 34 0 32.210938 0 30 L 0 4 C 0 1.789062 1.789062 0 4 0 Z M 4 0 "/>
<path style=" stroke:none;fill-rule:nonzero;fill:rgb(100%,100%,100%);fill-opacity:1;" d="M 20.171875 27 L 41 27 L 29.78125 7.480469 L 26.359375 16.910156 L 32.929688 24.738281 Z M 28.878906 6 L 20.878906 12.75 L 14 24.691406 L 20.191406 24.691406 Z M 28.878906 6 "/>
<path style=" stroke:none;fill-rule:nonzero;fill:rgb(100%,100%,100%);fill-opacity:1;" d="M 59.421875 23 L 57.140625 23 L 56.269531 20.421875 L 52.21875 20.421875 L 51.371094 23 L 49.101562 23 L 53.101562 12.21875 L 55.5 12.21875 Z M 55.75 18.769531 L 54.429688 14.859375 C 54.351562 14.570312 54.296875 14.269531 54.269531 13.96875 L 54.210938 13.96875 C 54.179688 14.269531 54.121094 14.5625 54.03125 14.851562 L 52.710938 18.769531 Z M 55.75 18.769531 "/>
<path style=" stroke:none;fill-rule:nonzero;fill:rgb(100%,100%,100%);fill-opacity:1;" d="M 66.5 23 L 59.769531 23 L 59.769531 22.191406 L 63.769531 16.859375 L 60.148438 16.859375 L 60.148438 15.300781 L 66.480469 15.300781 L 66.480469 16.25 L 62.558594 21.449219 L 66.5 21.449219 Z M 66.5 23 "/>
<path style=" stroke:none;fill-rule:nonzero;fill:rgb(100%,100%,100%);fill-opacity:1;" d="M 74.878906 23 L 72.878906 23 L 72.878906 21.808594 C 72.414062 22.671875 71.507812 23.203125 70.53125 23.191406 C 68.71875 23.191406 67.820312 22.109375 67.820312 19.941406 L 67.820312 15.300781 L 69.871094 15.300781 L 69.871094 19.730469 C 69.871094 20.96875 70.351562 21.589844 71.320312 21.589844 C 71.761719 21.605469 72.183594 21.417969 72.46875 21.078125 C 72.78125 20.699219 72.941406 20.214844 72.921875 19.71875 L 72.921875 15.300781 L 74.921875 15.300781 Z M 74.878906 23 "/>
<path style=" stroke:none;fill-rule:nonzero;fill:rgb(100%,100%,100%);fill-opacity:1;" d="M 81.71875 17.179688 C 81.417969 17.007812 81.070312 16.925781 80.71875 16.941406 C 80.230469 16.925781 79.765625 17.164062 79.488281 17.570312 C 79.148438 18.0625 78.976562 18.652344 79 19.25 L 79 23 L 77 23 L 77 15.300781 L 79 15.300781 L 79 16.78125 C 79.210938 15.84375 80.039062 15.175781 81 15.171875 C 81.214844 15.160156 81.429688 15.195312 81.628906 15.269531 Z M 81.71875 17.179688 "/>
<path style=" stroke:none;fill-rule:nonzero;fill:rgb(100%,100%,100%);fill-opacity:1;" d="M 89.53125 19.730469 L 84.390625 19.730469 C 84.46875 21.039062 85.210938 21.730469 86.621094 21.730469 C 87.4375 21.722656 88.230469 21.464844 88.898438 21 L 88.898438 22.550781 C 88.054688 22.992188 87.113281 23.207031 86.160156 23.171875 C 85.128906 23.242188 84.113281 22.878906 83.359375 22.171875 C 82.652344 21.371094 82.292969 20.324219 82.359375 19.261719 C 82.304688 18.15625 82.695312 17.074219 83.441406 16.261719 C 84.121094 15.503906 85.101562 15.082031 86.121094 15.109375 C 87.0625 15.0625 87.980469 15.425781 88.628906 16.109375 C 89.265625 16.867188 89.589844 17.839844 89.53125 18.828125 Z M 87.609375 18.390625 C 87.609375 17.171875 87.101562 16.550781 86.101562 16.550781 C 85.675781 16.554688 85.273438 16.734375 84.988281 17.050781 C 84.652344 17.421875 84.441406 17.890625 84.390625 18.390625 Z M 87.609375 18.390625 "/>
<path style=" stroke:none;fill-rule:nonzero;fill:rgb(100%,100%,100%);fill-opacity:1;" d="M 97.429688 15.140625 L 98.859375 15.140625 L 98.859375 10.480469 L 100.578125 10.480469 L 100.578125 23.898438 L 98.859375 23.898438 L 98.859375 16.699219 L 97.449219 16.699219 C 97.441406 17.820312 97.09375 18.910156 96.449219 19.828125 C 95.921875 20.523438 95.089844 20.914062 94.21875 20.878906 C 93.257812 20.917969 92.347656 20.441406 91.828125 19.628906 C 91.230469 18.519531 90.957031 17.257812 91.050781 16 C 90.972656 14.734375 91.261719 13.476562 91.878906 12.371094 C 92.390625 11.628906 93.214844 11.164062 94.113281 11.113281 C 95.011719 11.066406 95.882812 11.4375 96.46875 12.121094 C 97.089844 13.003906 97.425781 14.058594 97.429688 15.140625 Z M 94.269531 12.671875 C 93.308594 12.671875 92.828125 13.78125 92.828125 16 C 92.828125 18.210938 93.308594 19.320312 94.269531 19.320312 C 94.730469 19.320312 95.078125 19.039062 95.328125 18.46875 C 95.617188 17.679688 95.746094 16.839844 95.710938 16 C 95.742188 15.160156 95.617188 14.324219 95.339844 13.53125 C 95.203125 13.042969 94.773438 12.699219 94.269531 12.671875 Z M 101.539062 24.320312 L 101.539062 10.191406 L 103.320312 10.191406 L 103.320312 24.320312 Z M 101.539062 24.320312 "/>
<path style=" stroke:none;fill-rule:nonzero;fill:rgb(100%,100%,100%);fill-opacity:1;" d="M 111.769531 20.410156 L 111.769531 11.25 L 113.570312 11.25 L 113.570312 14.539062 L 115.710938 14.539062 L 115.710938 11.25 L 117.511719 11.25 L 117.511719 20.410156 Z M 115.710938 16.070312 L 113.570312 16.070312 L 113.570312 18.878906 L 115.710938 18.878906 Z M 121.710938 24.320312 L 121.710938 17.261719 L 120.570312 17.261719 L 120.570312 23.898438 L 118.75 23.898438 L 118.75 10.480469 L 120.570312 10.480469 L 120.570312 15.710938 L 121.710938 15.710938 L 121.710938 10.191406 L 123.53125 10.191406 L 123.53125 24.320312 Z M 121.710938 24.320312 "/>
<path style=" stroke:none;fill-rule:nonzero;fill:rgb(100%,100%,100%);fill-opacity:1;" d="M 126.230469 22.398438 L 126.230469 20.871094 L 131.851562 20.871094 L 131.851562 18.378906 L 127.429688 18.378906 L 127.429688 16.859375 L 129.429688 16.859375 L 129.269531 13.570312 L 131.101562 13.570312 L 131.21875 16.859375 L 134.328125 16.859375 L 134.460938 13.570312 L 136.289062 13.570312 L 136.078125 16.859375 L 138.078125 16.859375 L 138.078125 18.378906 L 133.699219 18.378906 L 133.699219 20.871094 L 139.339844 20.871094 L 139.339844 22.398438 Z M 127.53125 12.941406 L 127.53125 11.421875 L 138 11.421875 L 138 12.941406 Z M 127.53125 12.941406 "/>
</g>
</svg>
